# xmcd CD database file
#
# Track frame offsets:
#	150
#	16867
#	39510
#	54216
#	80225
#	104357
#	119165
#	138667
#	154465
#	170250
#	186414
#	198151
#	216089
#	241109
#	259034
#
# Disc length: 3642 seconds
#
# Revision: 2
# Processed by: cddbd v1.4PL0 Copyright (c) Steve Scherf et al.
# Submitted via: CDex 1.40Release
#
DISCID=d30e380f
DTITLE=Crimson Alley - Doggone Ugly
DYEAR=2001
DGENRE=Blues
TTITLE0=Never no more [Percy Mayfield]
TTITLE1=You Can't get back [Horst Bergmeyer]
TTITLE2=Mind your Business [Hank Williams]
TTITLE3=Blues after Midnight [Horst Bergmeyer]
TTITLE4=Parchman Farm [Mose Allison]
TTITLE5=Willy and the Handjive [Johnny Otis]
TTITLE6=Doggone Ugly [Horst Bergmeyer, Ralf Nackowitsch]
TTITLE7=Do the Shimmy [Horst Bergmeyer]
TTITLE8=How come [Jan Hirte]
TTITLE9=The Thought of you [Horst Bergmeyer]
TTITLE10=Bad, bad, bad [Horst Bergmeyer, Ralf Nackowitsch]
TTITLE11=Betty's Blues [Horst Bergmeyer]
TTITLE12=Same old Blues [Freddie King]
TTITLE13=Your smell on my Pillow [Horst Bergmeyer]
TTITLE14=Think twice before you go [John Lee Hooker]
EXTD=YEAR: 2001 ID3G: 0
EXTT0=
EXTT1=
EXTT2=
EXTT3=
EXTT4=
EXTT5=
EXTT6=
EXTT7=
EXTT8=
EXTT9=
EXTT10=
EXTT11=
EXTT12=
EXTT13=
EXTT14=
PLAYORDER=
